<!-- modified sample rectangle -->
<svg width="400" height="400" viewBox="0 0 64 64" xmlns="http://www.w3.org/2000/svg">
  <defs>
    <linearGradient id="a" x1="5.6" x2="58.4" y1="32" y2="32" gradientUnits="userSpaceOnUse">
      <stop stop-color="#a78bfa" offset="0"></stop>
      <stop stop-color="#f472b6" offset="1"></stop>
    </linearGradient>
  </defs>
  <g transform="translate(0, 0)">
    <path fill="url(#a)" d="M58.4 10.09v34.23a10.556 10.556 0 1 1-7.54-10.14V21.69a2.043 2.043 0 0 0-2.37-2.02l-20.01 3.18a2.043 2.043 0 0 0-1.73 2.02v24.56a10.569 10.569 0 1 1-7.76-10.2V14.76a6.067 6.067 0 0 1 5.06-5.99l27.22-4.68a6.092 6.092 0 0 1 7.13 6z" opacity="1"/>
  </g>
</svg>
